<svg width="6" height="10" viewBox="0 0 6 10" fill="none" xmlns="http://www.w3.org/2000/svg">
<path d="M3.016 0.501955C2.62481 0.50156 2.23738 0.578319 1.8759 0.727838C1.51441 0.877356 1.18596 1.0967 0.909352 1.37331C0.63274 1.64992 0.413397 1.97837 0.263879 2.33986C0.11436 2.70134 0.0376012 3.08877 0.0379959 3.47995C0.0379959 5.71295 3.016 9.00996 3.016 9.00996C3.016 9.00996 5.994 5.71295 5.994 3.47995C5.99439 3.08877 5.91763 2.70134 5.76811 2.33986C5.61859 1.97837 5.39925 1.64992 5.12264 1.37331C4.84603 1.0967 4.51758 0.877356 4.15609 0.727838C3.79461 0.578319 3.40718 0.50156 3.016 0.501955ZM3.016 4.54295C2.80575 4.54295 2.60023 4.48061 2.42542 4.36381C2.25062 4.247 2.11437 4.08099 2.03391 3.88675C1.95346 3.69251 1.93241 3.47878 1.97342 3.27257C2.01444 3.06637 2.11568 2.87696 2.26434 2.7283C2.413 2.57964 2.60241 2.4784 2.80861 2.43738C3.01482 2.39636 3.22855 2.41742 3.42279 2.49787C3.61703 2.57833 3.78304 2.71457 3.89985 2.88938C4.01665 3.06419 4.079 3.26971 4.079 3.47995C4.07873 3.7618 3.96665 4.03202 3.76736 4.23132C3.56806 4.43061 3.29784 4.54269 3.016 4.54295Z" fill="#121214"/>
</svg>
